HIERARCHY
ROOT pelvis
{
  OFFSET 0 100 0
  CHANNELS 6 Xposition Yposition Zposition Zrotation Xrotation Yrotation
  JOINT pelvis_right_femur
  {
    OFFSET -10.78128 -3.44521 -0.5502486
    CHANNELS 3 Zrotation Xrotation Yrotation
    JOINT right_femur_tibia
    {
      OFFSET -0.8047443 -44.0398 -0.1307829
      CHANNELS 3 Zrotation Xrotation Yrotation
      JOINT right_tibia_foot
      {
        OFFSET 3.006224 -47.83518 -5
        CHANNELS 3 Zrotation Xrotation Yrotation
        End Site
        {
          OFFSET 0 -5 15
        }
      }
    }
  }
  JOINT pelvis_left_femur
  {
    OFFSET 10.78128 -3.44521 -0.5502486
    CHANNELS 3 Zrotation Xrotation Yrotation
    JOINT left_femur_tibia
    {
      OFFSET 0.8047443 -44.0398 -0.1307829
      CHANNELS 3 Zrotation Xrotation Yrotation
      JOINT left_tibia_foot
      {
        OFFSET -4.370144 -48.10324 -4.275266
        CHANNELS 3 Zrotation Xrotation Yrotation
        End Site
        {
          OFFSET 0 -5 15
        }
      }
    }
  }
  JOINT pelvis_spine1
  {
    OFFSET 0 6.468898 -3.129235
    CHANNELS 3 Zrotation Xrotation Yrotation
    JOINT spine1
    {
      OFFSET 0 23.15396 4.99043
      CHANNELS 3 Zrotation Xrotation Yrotation
      JOINT spine2
      {
        OFFSET 0 20.79997 -5.064912
        CHANNELS 3 Zrotation Xrotation Yrotation
        JOINT neck
        {
          OFFSET 0 14.38658 9.616178
          CHANNELS 3 Zrotation Xrotation Yrotation
          End Site
          {
            OFFSET 0 20 0
          }
        }
      }
      JOINT right_manubrium
      {
        OFFSET -5.722621 16.35077 3.967754
        CHANNELS 3 Zrotation Xrotation Yrotation
        JOINT right_clavicle
        {
          OFFSET -13.16364 1.694482 -4.693211
          CHANNELS 3 Zrotation Xrotation Yrotation
          JOINT right_humerus
          {
            OFFSET -28.5034 -0.3100689 -2.792744
            CHANNELS 3 Zrotation Xrotation Yrotation
            JOINT right_radius
            {
              OFFSET -25.15693 0.02248979 -1.271978
              CHANNELS 3 Zrotation Xrotation Yrotation
              End Site
              {
                OFFSET -15 0 0
              }
            }
          }
        }
      }
      JOINT left_manubrium
      {
        OFFSET 5.722621 16.35077 3.967754
        CHANNELS 3 Zrotation Xrotation Yrotation
        JOINT left_clavicle
        {
          OFFSET 13.16364 1.694482 -4.693211
          CHANNELS 3 Zrotation Xrotation Yrotation
          JOINT left_humerus
          {
            OFFSET 29.39168 -1.063119 -2.237045
            CHANNELS 3 Zrotation Xrotation Yrotation
            JOINT left_radius
            {
              OFFSET 24.59957 -0.9528479 0.9047498
              CHANNELS 3 Zrotation Xrotation Yrotation
              End Site
              {
                OFFSET 15 -0 -0
              }
            }
          }
        }
      }
    }
  }
}
MOTION
Frames: 17
Frame Time: 0.0416666666667
0 103.5113 0 3.819881 -4.477304 0.447643 -4.408038 -5.660547 9.733674 -0 33.63073 -0 -5.098613 -15.26948 -1.037512 -9.319635 11.63118 -22.33143 -0 6.277617 -0 12.51733 -14.03165 26.82577 -4.811324 -3.269691 5.906486 0.8982635 12.27341 -6.796793 1.051625 21.46626 5.95799 3.092469 -26.46261 7.825326 8.563598 -23.25968 10.84316 83.34746 34.05224 -20.55236 -0 0 19.21219 -9.445992 9.004719 1.914145 4.974755 -22.63639 -5.750613 -99.73812 33.70633 26.64746 0 0 -14.18007 8.490152 26.07464 8.700053
0.4004482 103.4964 1.090417 3.444362 -4.583999 0.7485741 -3.527764 -9.008016 9.504593 -0 39.94693 -0 -4.844817 -13.75011 -1.934271 -8.995448 12.60211 -21.96821 -0 5.939319 -0 12.23104 -14.75982 26.25478 -4.6963 -2.710051 5.432516 1.042959 12.47169 -7.050595 1.036719 21.45745 6.139717 3.149171 -26.5817 8.027641 8.409426 -23.15697 10.50546 82.97876 33.85191 -20.34104 -0 0 19.27895 -9.773871 8.932516 2.225441 5.263445 -22.5816 -5.378206 -99.36349 33.41025 26.30289 0 0 -14.15998 8.478043 25.65272 8.885455
0.7893026 103.4743 2.424488 2.820365 -4.506352 0.7853636 -2.447404 -12.51182 8.764197 -0 44.86108 -0 -4.802621 -12.53934 -3.051798 -8.392029 13.4886 -21.55236 -0 5.442042 -0 11.88468 -15.47873 25.69978 -4.574793 -2.096957 4.881082 1.271756 12.6214 -7.427216 1.251916 21.32476 6.244666 3.34749 -26.845 8.322366 8.361992 -23.09986 10.23129 82.6372 33.67839 -20.2002 -0 0 19.19141 -10.0443 8.863983 2.491573 5.268158 -22.43792 -5.196011 -98.95565 33.11949 26.05862 0 0 -14.04718 8.3331 25.14911 9.123103
1.086824 103.5468 3.879964 2.125103 -4.119198 0.7073597 -1.330122 -16.16257 7.586265 -0 47.1076 -0 -4.880475 -11.89814 -4.111436 -7.777349 14.41916 -20.94297 -0 4.997383 -0 11.51505 -16.27507 25.13818 -4.332561 -1.629921 4.523018 1.473978 12.59658 -7.614495 1.479487 21.27109 6.307831 3.574243 -27.13068 8.548332 8.262734 -22.90184 9.91316 82.49306 33.52478 -20.2932 -0 0 18.88109 -10.23854 8.800693 2.692292 5.360209 -22.61595 -4.763009 -98.41984 32.88759 25.64358 0 0 -14.00137 8.087569 24.59283 9.371148
1.28891 103.4888 5.498204 1.597898 -3.58469 0.6061816 -0.288388 -19.78583 6.241045 -0 46.46966 -0 -4.917038 -11.31244 -4.730981 -7.234622 15.13682 -20.25291 -0 4.575103 -0 11.13715 -17.17856 24.51224 -4.118244 -1.393355 4.507153 1.622011 12.42358 -7.483693 1.70284 21.29297 6.351155 3.81304 -27.41517 8.729255 8.055184 -22.48086 9.516057 82.59288 33.39345 -20.64952 -0 0 18.34747 -10.34267 8.744549 2.831494 5.661918 -23.13286 -3.993038 -97.77364 32.69674 24.9972 0 0 -14.16818 7.800088 23.99146 9.57187
1.482035 103.2699 7.329313 1.24846 -2.759913 0.3392966 0.6492808 -23.24622 5.045098 -0 42.97012 -0 -4.85862 -10.56685 -4.812133 -6.935767 15.67817 -19.45404 -0 4.259738 -0 10.77233 -18.21352 23.83394 -4.14801 -1.085776 4.460028 1.828425 12.16168 -7.482924 1.8772 21.09302 6.408825 4.018468 -27.88978 8.891409 7.852467 -22.04544 9.246173 82.82929 33.31005 -21.04421 -0 0 17.64594 -10.36498 8.703407 2.924875 6.01748 -23.4707 -3.500153 -97.20822 32.47418 24.26315 0 0 -14.61194 7.504206 23.3499 9.681829
1.724836 102.7978 9.490484 1.046182 -1.791634 0.03263746 1.448291 -26.42252 4.308649 -0 37.62136 -0 -4.757969 -9.554544 -4.550194 -6.875497 16.15816 -18.58791 -0 4.205921 -0 10.45254 -19.40044 23.14185 -4.315777 -0.8244205 4.259996 2.091376 11.81135 -7.72718 1.982885 20.77666 6.5032 4.185284 -28.48487 9.053887 7.614571 -21.72074 9.091993 83.06483 33.28885 -21.34292 -0 0 16.89906 -10.36586 8.68663 3.032261 6.38913 -23.63489 -3.369375 -96.67104 32.21914 23.49179 0 0 -15.30244 7.215052 22.67003 9.696054
1.864624 102.178 11.78898 0.9667462 -0.8042424 -0.0607049 2.09809 -29.51366 3.822722 -0 31.32491 -0 -4.708346 -8.42994 -4.184372 -6.91471 16.53104 -17.73098 -0 4.538044 -0 10.14662 -20.66641 22.42421 -4.3425 -0.4279958 4.206779 2.19592 11.57124 -7.789965 2.076731 20.46975 6.603992 4.355813 -29.11444 9.214819 7.308357 -21.23035 9.074574 83.45278 33.26103 -21.68908 -0 0 16.10655 -10.34978 8.684564 3.160566 6.607788 -23.89589 -3.214903 -95.99146 31.88527 22.53575 0 0 -16.18701 7.019924 21.96903 9.645401
2.045739 101.3621 14.70523 0.7780196 0.1039532 0.03762094 2.79806 -32.02236 3.680959 -0 25.24989 -0 -4.866069 -7.313281 -3.766337 -6.933499 17.02131 -16.91139 -0 5.460044 -0 9.746892 -21.8332 21.61725 -4.291342 -0.1530312 3.920792 2.415613 11.28057 -8.038141 2.042503 20.23738 6.806064 4.520535 -29.64109 9.340118 6.948799 -20.66606 9.024537 83.90599 33.24155 -22.14373 -0 0 15.23366 -10.32279 8.707591 3.317806 6.853231 -23.95154 -3.267842 -95.38443 31.53155 21.72978 0 0 -17.0572 6.752242 21.23786 9.593403
2.055206 100.4606 18.00725 0.2452036 0.8088843 0.5717117 3.711236 -33.76712 4.045478 -0 20.84415 -0 -5.350949 -6.145104 -3.217512 -6.666048 17.47844 -16.1206 -0 7.141322 -0 9.146544 -22.70186 20.70995 -3.867222 0.1341105 3.482029 2.676876 11.00195 -8.385045 1.922554 20.00233 6.990082 4.605577 -29.93593 9.342357 6.687941 -20.09793 9.052468 84.43861 33.23999 -22.61534 -0 0 14.33456 -10.29109 8.764232 3.525532 6.846873 -23.96758 -3.363882 -94.80376 31.08607 21.02483 0 0 -17.66489 6.484857 20.47667 9.614694
2.108635 99.70432 22.03014 -0.07675038 1.437516 1.236095 4.719705 -34.42923 4.31353 -0 18.27761 -0 -6.011635 -5.181697 -3.020822 -6.243879 18.29506 -15.07618 -0 9.57293 -0 8.071521 -22.94698 19.29171 -3.357233 0.08618172 2.962278 2.782298 10.76138 -8.79788 1.724048 19.85733 7.175656 4.632297 -30.05755 9.26228 6.488532 -19.44462 9.002259 85.10781 33.24315 -23.25805 -0 0 13.28445 -10.24992 8.86373 3.746665 6.514646 -23.81934 -3.36593 -94.33848 30.56206 20.6648 0 0 -17.80561 6.157247 19.66998 9.74541
2.146667 99.33102 26.69611 -0.7615352 1.949063 2.055531 5.572031 -33.49824 4.861372 -0 18.34904 -0 -7.047177 -4.153314 -2.845033 -5.376925 18.42841 -14.0964 -0 13.5213 -0 6.488435 -22.02033 17.5748 -2.444926 -0.1041604 2.334986 2.964534 10.52764 -9.288707 1.486527 19.71037 7.348137 4.61039 -30.04594 9.125777 6.348082 -18.7966 9.017359 85.75322 33.27522 -23.86801 -0 0 12.16868 -10.24983 8.991705 4.01068 5.96273 -23.50769 -3.433174 -94.11534 29.96509 20.63975 0 0 -17.59109 5.760494 18.82367 9.963017
2.104598 99.27733 31.88109 -1.497698 2.365172 2.873796 6.631288 -31.57156 5.344203 -0 19.19725 -0 -7.994729 -3.645291 -2.952425 -4.497387 18.15262 -13.35489 -0 18.91114 -0 4.53312 -19.47363 15.75855 -1.310103 -0.526244 1.903972 3.104398 10.27747 -9.578318 1.177145 19.53366 7.489653 4.497867 -29.79906 8.878002 6.138539 -18.02352 9.133514 86.53386 33.31794 -24.44378 -0 0 11.07489 -10.2985 9.156681 4.337394 5.457419 -23.07926 -3.393128 -94.09545 29.31904 20.79496 0 0 -17.26556 5.328267 17.96053 10.19423
2.139128 99.6711 37.52243 -2.43074 2.198943 2.957772 7.774927 -28.6716 5.824304 -0 20.15011 -0 -8.858634 -4.068855 -3.171492 -4.059176 16.73789 -12.49418 -0 26.99318 -0 2.378318 -14.91244 14.06023 -0.002998116 -0.7368652 1.849365 3.341597 10.23199 -9.495531 0.8773983 19.39133 7.588533 4.361009 -29.38987 8.584674 5.946944 -17.38442 9.571547 87.1224 33.4459 -24.69138 -0 0 10.06483 -10.3777 9.368791 4.690157 4.968495 -22.42703 -3.340745 -94.37634 28.60106 21.15128 0 0 -16.92561 4.884016 17.07636 10.39875
2.290547 100.4298 43.35828 -2.836099 1.549527 2.335408 8.405579 -24.47681 5.849206 -0 20.23086 -0 -9.613675 -5.424391 -3.215921 -3.811769 13.96544 -11.34007 -0 36.86432 -0 0.6304553 -9.321413 12.59794 0.8726713 -0.6793806 2.253792 3.536756 10.34529 -9.126845 0.4704021 19.50273 7.677258 4.158203 -28.81425 8.189895 5.925492 -17.00934 10.29769 87.32135 33.6722 -24.43066 -0 0 9.251657 -10.6285 9.598451 5.180318 4.563692 -21.97557 -3.34041 -94.58993 27.94344 21.32996 0 0 -16.65637 4.439847 16.21996 10.59963
2.333709 101.2261 48.99711 -2.927057 0.4298918 1.990993 8.481064 -19.2648 5.489987 -0 19.34284 -0 -10.12457 -7.206656 -3.103976 -3.787027 9.511232 -9.57888 -0 47.11211 -0 -0.2562667 -4.154717 12.67183 1.123266 -0.329626 3.014697 3.724678 10.53729 -8.646574 0.2933434 19.87898 7.642589 4.068252 -28.05945 7.858835 6.040968 -16.99346 10.9154 87.0858 33.94538 -23.60512 -0 0 8.820883 -11.15581 9.816137 5.892482 4.105298 -21.84053 -3.246982 -94.41591 27.3522 21.33287 0 0 -16.31496 4.01622 15.35741 10.78453
2.355585 102.2074 54.32118 -2.224089 -0.937171 1.537841 7.655285 -13.45703 4.819171 -0 17.55918 -0 -10.30381 -8.949442 -2.821262 -3.031075 3.40133 -8.241541 -0 55.22421 -0 -0.09977726 -1.258358 14.23497 0.5463247 0.3802459 4.094386 3.73017 10.78261 -8.096332 0.0821549 20.41867 7.537071 3.94571 -27.17902 7.405768 6.247535 -17.21243 11.42467 86.51065 34.22472 -22.29736 -0 0 8.786505 -12.03478 10.00561 6.842456 3.878903 -21.97824 -3.08452 -93.76294 26.79986 21.06193 0 0 -16.04662 3.6924 14.50849 10.95744
